HIERARCHY
ROOT root
{
	OFFSET	0	13.1	24.9
	CHANNELS 6  Xposition Yposition Zposition Xrotation Yrotation Zrotation
	JOINT spine_1
	{
		OFFSET	0	9.99999	0
		CHANNELS 3  Xrotation Yrotation Zrotation
		JOINT spine_2
		{
			OFFSET	0	112	-10
			CHANNELS 3  Xrotation Yrotation Zrotation
			JOINT spine_3
			{
				OFFSET	0	206.5	19.3
				CHANNELS 3  Xrotation Yrotation Zrotation
				JOINT spine_4
				{
					OFFSET	0	110.4	14.6
					CHANNELS 3  Xrotation Yrotation Zrotation
					JOINT neck_1
					{
						OFFSET	0	71.8	-50.3
						CHANNELS 3  Xrotation Yrotation Zrotation
						JOINT neck_2
						{
							OFFSET	0	86.2	-25.8
							CHANNELS 3  Xrotation Yrotation Zrotation
							JOINT head_ee
							{
								OFFSET	0	179.8	-8.7
								CHANNELS 3  Xrotation Yrotation Zrotation
								End Site
								{
									OFFSET	1	0	0
								}
							}
						}
					}
					JOINT left_clavicle
					{
						OFFSET	-43.2	22.4	-70.8
						CHANNELS 3  Xrotation Yrotation Zrotation
						JOINT left_shoulder
						{
							OFFSET	-93.9	-5.79999	48.7
							CHANNELS 3  Xrotation Yrotation Zrotation
							JOINT left_elbow
							{
								OFFSET	-291.4	-30.8	15.2
								CHANNELS 3  Xrotation Yrotation Zrotation
								JOINT left_lowarm_twist
								{
									OFFSET	-110.7	-3.89999	13.6
									CHANNELS 3  Xrotation Yrotation Zrotation
									JOINT left_hand
									{
										OFFSET	-110.7	-3.89999	13.6
										CHANNELS 3  Xrotation Yrotation Zrotation
										JOINT left_ee
										{
											OFFSET	-80.8	-5.10001	12.1
											CHANNELS 3  Xrotation Yrotation Zrotation
											End Site
											{
												OFFSET	1	0	0
											}
										}
									}
								}
							}
						}
					}
					JOINT right_clavicle
					{
						OFFSET	43.2	22.4	-70.8
						CHANNELS 3  Xrotation Yrotation Zrotation
						JOINT right_shoulder
						{
							OFFSET	93.9	-5.79999	48.7
							CHANNELS 3  Xrotation Yrotation Zrotation
							JOINT right_elbow
							{
								OFFSET	291.4	-30.8	15.2
								CHANNELS 3  Xrotation Yrotation Zrotation
								JOINT right_lowarm_twist
								{
									OFFSET	110.7	-3.89999	13.6
									CHANNELS 3  Xrotation Yrotation Zrotation
									JOINT right_hand
									{
										OFFSET	110.7	-3.89999	13.6
										CHANNELS 3  Xrotation Yrotation Zrotation
										JOINT right_ee
										{
											OFFSET	80.8	-5.10001	12.1
											CHANNELS 3  Xrotation Yrotation Zrotation
											End Site
											{
												OFFSET	1	0	0
											}
										}
									}
								}
							}
						}
					}
				}
			}
		}
	}
	JOINT left_hip
	{
		OFFSET	-82.8	-127.5	0.300001
		CHANNELS 3  Xrotation Yrotation Zrotation
		JOINT left_knee
		{
			OFFSET	-28.2	-396.7	2.2
			CHANNELS 3  Xrotation Yrotation Zrotation
			JOINT left_ankle
			{
				OFFSET	-11.7	-411.3	35.4
				CHANNELS 3  Xrotation Yrotation Zrotation
				JOINT left_toes
				{
					OFFSET	0	-60	-88.6
					CHANNELS 3  Xrotation Yrotation Zrotation
					JOINT left_foot_ee
					{
						OFFSET	-22.5	-16.5	-42.2
						CHANNELS 3  Xrotation Yrotation Zrotation
						End Site
						{
							OFFSET	1	0	0
						}
					}
				}
			}
		}
	}
	JOINT right_hip
	{
		OFFSET	82.8	-127.5	0.300001
		CHANNELS 3  Xrotation Yrotation Zrotation
		JOINT right_knee
		{
			OFFSET	28.2	-396.7	2.2
			CHANNELS 3  Xrotation Yrotation Zrotation
			JOINT right_ankle
			{
				OFFSET	11.7	-411.3	35.4
				CHANNELS 3  Xrotation Yrotation Zrotation
				JOINT right_toes
				{
					OFFSET	0	-60	-88.6
					CHANNELS 3  Xrotation Yrotation Zrotation
					JOINT right_foot_ee
					{
						OFFSET	22.5	-16.5	-42.2
						CHANNELS 3  Xrotation Yrotation Zrotation
						End Site
						{
							OFFSET	1	0	0
						}
					}
				}
			}
		}
	}
}
MOTION
Frames: 7
Frame Time: 0.02
1372.05 701.618 -1475.22 -20.8218621136 31.9238113982 14.7732283334 4.55349 0.136688 0.16977 4.55349 0.125608 0.178124 4.55388 0.101018 0.193134 4.55385 0.130252 0.174756 1.83255 -1.24135 -4.23382 1.88767 1.37767 -4.75949 -0.0 0.0 -0.0 2.03731 13.7553 4.94968 1.00955 -46.6931 57.4613 1.75467 -40.9939 0.655982 -13.5715 -0.670719 1.59636 -1.62824 18.526 -2.30627 -0.0 0.0 -0.0 9.18143 2.35055 -18.0441 20.2277 -68.5536 -30.2552 0.401275 11.2429 -0.0394972 84.4938 4.36601 8.84252 -2.39998 -24.497 3.9017 0.0 0.0 0.0 7.98791 15.7538 -2.38962 -15.4388 0.322071 2.34021 41.1814 11.3085 -4.99025 -14.5304 0.0 0.0 -0.0 0.0 -0.0 47.8596 18.3558 -8.75741 -1.22568 -0.0485237 -0.181835 -24.2568 -14.6542 -3.66873 23.7258 -0.0 -0.0 0.0 0.0 0.0 
1359.32161774 702.873 -1497.35919486 -21.2791756058 32.1490351445 15.657812427 4.88559 0.0830503 0.122786 4.8856 0.0750688 0.127821 4.88576 0.0583452 0.13627 4.88574 0.0791342 0.125345 2.20237 -0.757497 -4.58584 2.27536 2.54726 -5.1266 -0.0 0.0 -0.0 0.766568 14.8742 2.98027 -0.452013 -47.3138 58.9131 1.82111 -42.0504 0.700027 -13.5323 -0.668243 1.59199 -1.66629 19.0721 -2.27898 -0.0 0.0 -0.0 9.55284 2.11013 -18.8098 21.878 -68.8983 -27.3066 0.444951 12.4303 -0.0484566 83.9971 4.30685 8.81884 -2.41597 -24.9324 3.76864 0.0 0.0 0.0 7.50078 16.7622 -3.39904 -15.5998 0.322085 2.36491 40.9148 12.0661 -4.97513 -13.6398 0.0 0.0 -0.0 0.0 -0.0 47.7912 18.4855 -9.63983 -1.72797 -0.0672818 -0.256637 -24.142 -16.0325 -3.66174 21.7139 -0.0 -0.0 0.0 0.0 0.0 
1359.70123564 702.873 -1497.57315823 -21.0611592194 31.2373183145 15.242850284 4.88559 0.0830503 0.122786 4.8856 0.0750688 0.127821 4.88576 0.0583452 0.13627 4.88574 0.0791342 0.125345 2.20237 -0.757497 -4.58584 2.27536 2.54726 -5.1266 -0.0 0.0 -0.0 0.766568 14.8742 2.98027 -0.452013 -47.3138 58.9131 1.82111 -42.0504 0.700027 -13.5323 -0.668243 1.59199 -1.66629 19.0721 -2.27898 -0.0 0.0 -0.0 9.55284 2.11013 -18.8098 21.878 -68.8983 -27.3066 0.444951 12.4303 -0.0484566 83.9971 4.30685 8.81884 -2.41597 -24.9324 3.76864 0.0 0.0 0.0 7.50078 16.7622 -3.39904 -15.5998 0.322085 2.36491 40.9148 12.0661 -4.97513 -13.6398 0.0 0.0 -0.0 0.0 -0.0 47.7912 18.4855 -9.63983 -1.72797 -0.0672818 -0.256637 -24.142 -16.0325 -3.66174 21.7139 -0.0 -0.0 0.0 0.0 0.0 
1348.48341486 704.054 -1522.57618296 -21.6894030084 31.582061767 15.9089328055 4.97297 0.0396628 0.139567 4.97298 0.0307015 0.141808 4.97305 0.0127881 0.144528 4.97302 0.0354531 0.140695 2.87098 -0.22306 -4.69941 2.95911 3.61662 -5.25156 -0.0 0.0 -0.0 -0.612217 15.7551 0.883062 -0.519175 -45.0497 61.6802 1.94542 -43.9364 0.78481 -14.7367 -0.745629 1.7253 -2.28822 19.3279 -5.88285 -0.0 0.0 -0.0 9.77512 1.63825 -19.2574 22.3659 -69.815 -26.5685 0.396267 11.1061 -0.0385267 84.2956 4.34238 8.83313 -2.17705 -24.1314 2.81946 0.0 0.0 0.0 6.95418 17.0568 -4.35032 -15.8834 0.321943 2.40843 37.5897 9.9407 -4.65836 -12.3215 0.0 0.0 -0.0 0.0 -0.0 47.8097 18.7583 -10.1832 -3.62846 -0.132296 -0.541048 -22.2139 -13.9817 -3.35555 21.3597 -0.0 -0.0 0.0 0.0 0.0 
1322.60241276 710.555 -1560.36910259 -22.3267195535 32.9148962831 16.7407297503 4.97132 -0.0801167 0.113907 4.97132 -0.0872025 0.108578 4.97115 -0.100059 0.0968599 4.97115 -0.0835056 0.111447 4.13439 0.920777 -5.73744 4.30948 6.55552 -6.44724 -0.0 0.0 -0.0 -1.6402 14.7766 -0.899355 -4.577 -44.7352 64.0566 1.81019 -41.8791 0.692727 -14.618 -0.737875 1.71223 -2.70412 20.2388 -7.90373 -0.0 0.0 -0.0 10.7236 2.46421 -21.2864 34.5793 -65.6322 -19.6568 0.249689 7.05118 -0.0153836 84.4111 4.35615 8.83862 -2.29606 -22.9377 4.10136 0.0 0.0 0.0 7.96585 17.2599 -5.6651 -17.2073 0.31843 2.61152 36.3588 11.1013 -4.55073 -10.1537 0.0 0.0 -0.0 0.0 -0.0 48.051 18.8189 -10.9625 -8.08466 -0.24748 -1.21504 -18.4448 -13.0304 -2.77897 21.4303 -0.0 -0.0 0.0 0.0 0.0 
1324.5763076 710.555 -1561.48518467 -22.0118935575 31.6929279363 16.1516575426 4.97132 -0.0801167 0.113907 4.97132 -0.0872025 0.108578 4.97115 -0.100059 0.0968599 4.97115 -0.0835056 0.111447 4.13439 0.920777 -5.73744 4.30948 6.55552 -6.44724 -0.0 0.0 -0.0 -1.6402 14.7766 -0.899355 -4.577 -44.7352 64.0566 1.81019 -41.8791 0.692727 -14.618 -0.737875 1.71223 -2.70412 20.2388 -7.90373 -0.0 0.0 -0.0 10.7236 2.46421 -21.2864 34.5793 -65.6322 -19.6568 0.249689 7.05118 -0.0153836 84.4111 4.35615 8.83862 -2.29606 -22.9377 4.10136 0.0 0.0 0.0 7.96585 17.2599 -5.6651 -17.2073 0.31843 2.61152 36.3588 11.1013 -4.55073 -10.1537 0.0 0.0 -0.0 0.0 -0.0 48.051 18.8189 -10.9625 -8.08466 -0.24748 -1.21504 -18.4448 -13.0304 -2.77897 21.4303 -0.0 -0.0 0.0 0.0 0.0 
1287.3994889 720.343 -1591.70267201 -21.1045284555 28.6228944003 15.0313524488 4.61968 0.000626081 -0.0568916 4.61968 0.00424497 -0.0567364 4.61967 0.0116269 -0.0556943 4.61967 0.0026851 -0.0568316 5.10586 0.634802 -7.31897 5.37861 7.49575 -8.37396 -0.0 0.0 -0.0 0.0507126 14.6749 1.80917 -7.19557 -39.8077 66.7799 1.09275 -28.4267 0.276788 -15.3657 -0.787159 1.79427 -3.38857 20.8817 -11.6579 -0.0 0.0 -0.0 10.725 2.36204 -21.2849 40.7197 -63.7065 -18.5712 0.190327 5.3862 -0.00895261 84.3601 4.35007 8.8362 -2.18344 -21.3127 4.26244 0.0 0.0 0.0 9.38749 18.1676 -4.1021 -20.0583 0.294942 3.04828 33.3792 14.8019 -4.29134 -8.78854 0.0 0.0 -0.0 0.0 -0.0 48.3641 19.4559 -13.278 -13.1484 -0.314339 -1.98891 -13.155 -13.7128 -1.97601 24.8086 -0.0 -0.0 0.0 0.0 0.0 
